<svg xmlns="http://www.w3.org/2000/svg" viewBox="0 0 120 27.62"><defs><style>.cls-1,.cls-2{fill:#fff;}.cls-2{fill-rule:evenodd;}</style></defs><g id="Capa_2" data-name="Capa 2"><g id="Capa_1-2" data-name="Capa 1"><g id="Grupo_3264" data-name="Grupo 3264"><path id="Trazado_291" data-name="Trazado 291" class="cls-1" d="M44.93,27.62c-7.79,0-12.29-5.63-10.4-13.92A17.1,17.1,0,0,1,51.21,0C59,0,63.61,5.29,61.7,13.7A17.47,17.47,0,0,1,44.93,27.62M50.16,5.51C45.83,5.51,42,9,40.81,13.7,39.59,18.55,41.7,22,46,22s8.2-3.49,9.42-8.33-.93-8.19-5.26-8.19"/><path id="Trazado_292" data-name="Trazado 292" class="cls-2" d="M15.45,6.78C14.84,1.27,10.54.7,8.05.7H6L0,26.91H5.93L10,8.36l2.36,18.55h4.32L27.24,8.36,22.88,26.91h5.88L34.72.7H32.11c-2.49,0-6.35.61-8.62,4.38L16.83,17Z"/><path id="Trazado_293" data-name="Trazado 293" class="cls-2" d="M93.74,26.91c2.59,0,5.61-.31,8.29-3.6L120,.71h-7.19L97.94,20,103,.71H96.85l-6.52,26.2Z"/><path id="Trazado_294" data-name="Trazado 294" class="cls-1" d="M74.15,27.62c-7.79,0-12.29-5.63-10.4-13.92A17.1,17.1,0,0,1,80.43,0c7.82,0,12.4,5.29,10.49,13.7A17.47,17.47,0,0,1,74.15,27.62M79.38,5.51C75.05,5.51,71.22,9,70,13.7c-1.22,4.85.89,8.33,5.18,8.33s8.2-3.49,9.43-8.33-.93-8.19-5.26-8.19"/></g></g></g></svg>